<svg width="16" height="16" viewBox="0 0 16 16" fill="none" xmlns="http://www.w3.org/2000/svg">
<path fill-rule="evenodd" clip-rule="evenodd" d="M13.1584 7.20876C13.4527 7.14546 13.5621 7.18633 13.5861 7.19783C13.5959 7.21836 13.6183 7.28569 13.6028 7.44456C13.5803 7.67519 13.4834 8.00156 13.2858 8.41006C12.8933 9.22106 12.1695 10.2211 11.1953 11.1953C10.2211 12.1695 9.22109 12.8933 8.41005 13.2858C8.00155 13.4834 7.67519 13.5803 7.44455 13.6028C7.28572 13.6183 7.21839 13.5959 7.19782 13.5861C7.18632 13.5621 7.14545 13.4527 7.20875 13.1584C7.28542 12.8018 7.48965 12.3219 7.83462 11.7606C8.25252 11.0806 8.84992 10.3248 9.58739 9.58736C10.3248 8.84993 11.0806 8.25249 11.7606 7.83459C12.3219 7.48966 12.8018 7.28543 13.1584 7.20876ZM1.47065 9.74679L6.25325 14.5294C6.62712 14.9033 7.13425 14.9727 7.57392 14.9298C8.01952 14.8864 8.50495 14.7211 8.99079 14.486C9.96842 14.0129 11.0873 13.1889 12.1381 12.1381C13.1889 11.0873 14.0129 9.96843 14.486 8.99079C14.7211 8.50496 14.8864 8.01953 14.9298 7.57393C14.9727 7.13426 14.9033 6.62713 14.5294 6.25326L9.74679 1.47065C9.28425 1.00812 8.62552 1.0086 8.09539 1.12261C7.53605 1.2429 6.91115 1.52809 6.27989 1.91603C5.49929 2.39575 4.66272 3.0612 3.86195 3.86196C3.0612 4.66269 2.39574 5.49929 1.91603 6.27989C1.52809 6.91116 1.2429 7.53606 1.12261 8.09539C1.0086 8.62553 1.00812 9.28426 1.47065 9.74679Z" fill="white"/>
</svg>
