<svg width="16.000000" height="16.000000" viewBox="0 0 16 16" fill="none" xmlns="http://www.w3.org/2000/svg" xmlns:xlink="http://www.w3.org/1999/xlink">
	<desc>
			Created with Pixso.
	</desc>
	<defs>
		<clipPath id="clip1_212">
			<rect id="Depth 5, Frame 0" rx="-0.500000" width="15.000000" height="15.000000" transform="translate(0.500000 0.500000)" fill="white" fill-opacity="0"/>
		</clipPath>
	</defs>
	<g clip-path="url(#clip1_212)">
		<path id="Vector - 0" d="M13.15 7.2C13.45 7.14 13.56 7.18 13.58 7.19C13.59 7.21 13.61 7.28 13.6 7.44C13.58 7.67 13.48 8 13.28 8.41C12.89 9.22 12.16 10.22 11.19 11.19C10.22 12.16 9.22 12.89 8.41 13.28C8 13.48 7.67 13.58 7.44 13.6C7.28 13.61 7.21 13.59 7.19 13.58C7.18 13.56 7.14 13.45 7.2 13.15C7.28 12.8 7.48 12.32 7.83 11.76C8.25 11.08 8.84 10.32 9.58 9.58C10.32 8.84 11.08 8.25 11.76 7.83C12.32 7.48 12.8 7.28 13.15 7.2ZM1.47 9.74L6.25 14.52C6.62 14.9 7.13 14.97 7.57 14.92C8.01 14.88 8.5 14.72 8.99 14.48C9.96 14.01 11.08 13.18 12.13 12.13C13.18 11.08 14.01 9.96 14.48 8.99C14.72 8.5 14.88 8.01 14.92 7.57C14.97 7.13 14.9 6.62 14.52 6.25L9.74 1.47C9.28 1 8.62 1 8.09 1.12C7.53 1.24 6.91 1.52 6.27 1.91C5.49 2.39 4.66 3.06 3.86 3.86C3.06 4.66 2.39 5.49 1.91 6.27C1.52 6.91 1.24 7.53 1.12 8.09C1 8.62 1 9.28 1.47 9.74Z" fill="#121417" fill-opacity="1.000000" fill-rule="evenodd"/>
	</g>
</svg>
